<svg xmlns="http://www.w3.org/2000/svg" viewBox="0 0 2674.7 324.15"><defs><style>.cls-1{opacity:0.95;}.cls-2{fill:#fff;}.cls-3{fill:#ed3937;}</style></defs><title>logo</title><g id="Layer_2" data-name="Layer 2"><g id="Layer_1-2" data-name="Layer 1"><g class="cls-1"><circle class="cls-2" cx="96.44" cy="202.61" r="28" transform="translate(-14.12 7.35) rotate(-4.07)"/><path class="cls-2" d="M196.24,164.86a101.44,101.44,0,0,0-20.86-33.25,93.82,93.82,0,0,0-31.73-21.73A103.1,103.1,0,0,0,103,102.05a144.51,144.51,0,0,0-26.08,2l-20.21,3.81a.18.18,0,0,1-.22-.18V5.48a5.48,5.48,0,0,0-7-5.26L0,14.69V304.6q23.9,10.42,42.81,15A171.11,171.11,0,0,0,83,324.15q27.38,0,49.76-8.25a105.07,105.07,0,0,0,38-23.69,107.86,107.86,0,0,0,24.34-36.95q8.7-21.51,8.7-48A114.82,114.82,0,0,0,196.24,164.86ZM96.44,302.05S41,249.06,41,203.49a55.49,55.49,0,0,1,111,0C151.93,249.06,97.88,303.49,96.44,302.05Z"/><path class="cls-2" d="M225.85,139.27H276.4l4.34,31.06h1.44c13.36-24.56,33.58-35.39,51.28-35.39,11.19,0,17.33,1.44,22.39,3.61L345.73,192c-6.5-1.44-12.27-2.89-20.22-2.89-13,0-28.89,8-37.55,30.34V319.82H225.85Z"/><path class="cls-2" d="M373.18,85.83c0-18.06,14.45-31.06,34.67-31.06s34.67,13,34.67,31.06-14.45,31.05-34.67,31.05S373.18,103.88,373.18,85.83Zm3.62,53.44h62.11V319.82H376.8Z"/><path class="cls-2" d="M488.74,250.49V187.66H464.91V141.44l27.44-2.17,7.22-46.94h51.28v46.94H592v48.39H550.85v61.75c0,19.86,10.11,26.36,21.66,26.36a52,52,0,0,0,15.89-2.89l9.39,44.77a136.34,136.34,0,0,1-42.61,6.5C508.24,324.15,488.74,294.54,488.74,250.49Z"/><path class="cls-2" d="M621.63,85.83c0-18.06,14.44-31.06,34.66-31.06S691,67.77,691,85.83s-14.44,31.05-34.67,31.05S621.63,103.88,621.63,85.83Zm3.61,53.44h62.11V319.82H625.24Z"/><path class="cls-2" d="M714.79,298.88l27.45-38.28c16.61,12.28,31.42,18.06,44,18.06,13,0,18.06-3.62,18.06-10.84,0-9.39-16.61-13.72-34.67-20.94-20.94-8.31-45.5-23.83-45.5-53.44,0-35.39,28.89-58.5,71.5-58.5,29.61,0,50.56,11.91,66.44,23.83L834.68,195.6c-13-9.39-25.64-15.16-36.83-15.16-10.47,0-15.89,2.89-15.89,10.11,0,9.39,15.89,13,33.94,19.5,21.67,7.94,46.22,21.66,46.22,54.16,0,33.94-26.72,59.94-77.27,59.94C761.74,324.15,733.57,314,714.79,298.88Z"/><path class="cls-2" d="M892.46,68.49h62.11V127l-2.89,31.06c12.28-10.84,29.61-23.11,54.17-23.11,39.72,0,56.33,28.89,56.33,73.66V319.82h-62.11V216.55c0-23.11-5.78-28.89-18.05-28.89-11.56,0-18.06,5.05-27.45,13.72V319.82H892.46Z"/><path class="cls-2" d="M1162.57,139.27H1224l13.72,75.83c2.89,18.06,4.33,36.11,7.23,54.89h1.44c2.89-18.78,5.78-37.55,10.11-54.89l16.61-75.83h52.72l17.34,75.83c4.33,18.06,7.22,36.11,10.83,54.89h1.44c2.89-18.78,4.33-36.83,7.22-54.89l13.73-75.83h57.05l-41.17,180.55H1320L1307,257c-2.88-16.61-5.77-33.22-8.66-53.08h-1.45c-2.89,19.86-5.05,36.47-7.94,53.08l-12.28,62.83h-70.77Z"/><path class="cls-2" d="M1450,229.55c0-60,43.33-94.61,89.55-94.61s89.56,34.66,89.56,94.61-43.34,94.6-89.56,94.6S1450,289.49,1450,229.55Zm115.55,0c0-27.45-7.22-44.78-26-44.78s-26,17.33-26,44.78,7.23,44.77,26,44.77S1565.57,257,1565.57,229.55Z"/><path class="cls-2" d="M1661.63,139.27h50.56l4.33,21.67H1718c14.45-13.73,32.5-26,57.06-26,39.72,0,56.33,28.89,56.33,73.66V319.82h-62.11V216.55c0-23.11-5.78-28.89-18-28.89-11.56,0-18.06,5.05-27.45,13.72V319.82h-62.11Z"/><path class="cls-2" d="M1863.85,229.55c0-59.22,36.84-94.61,73.67-94.61,19.5,0,31.06,7.22,41.89,18.05l-2.17-26V68.49h62.11V319.82H1988.8l-4.34-16.61H1983c-12.28,12.28-29.61,20.94-45.5,20.94C1892.74,324.15,1863.85,288,1863.85,229.55Zm113.39,31.05V194.16c-7.22-6.5-16.61-8.67-24.55-8.67-13,0-25.28,11.56-25.28,43.33,0,32.5,10.11,44.78,26.72,44.78C1963.52,273.6,1970.74,270.71,1977.24,260.6Z"/><path class="cls-2" d="M2071.85,229.55c0-58.5,42.61-94.61,86.67-94.61,53.44,0,78.72,39,78.72,87.38,0,10.84-1.45,21.67-2.53,26H2131.8c5.77,21.67,21.66,28.89,41.88,28.89,12.28,0,23.84-3.61,36.84-10.83l20.22,36.83c-19.5,13.72-45.5,20.94-65.72,20.94C2112.3,324.15,2071.85,289.49,2071.85,229.55Zm112.67-21.67c0-13.72-5.78-26-24.56-26-13.72,0-25.27,8-28.89,26Z"/><path class="cls-2" d="M2271.18,139.27h50.56l4.33,31.06h1.44c13.37-24.56,33.59-35.39,51.28-35.39,11.2,0,17.33,1.44,22.39,3.61L2391.07,192c-6.5-1.44-12.28-2.89-20.22-2.89-13,0-28.89,8-37.56,30.34V319.82h-62.11Z"/><path class="cls-2" d="M2404.08,298.88l27.44-38.28c16.61,12.28,31.42,18.06,44.06,18.06,13,0,18.05-3.62,18.05-10.84,0-9.39-16.61-13.72-34.66-20.94-20.95-8.31-45.5-23.83-45.5-53.44,0-35.39,28.88-58.5,71.49-58.5,29.61,0,50.56,11.91,66.45,23.83L2524,195.6c-13-9.39-25.63-15.16-36.83-15.16-10.47,0-15.89,2.89-15.89,10.11,0,9.39,15.89,13,34,19.5,21.66,7.94,46.22,21.66,46.22,54.16,0,33.94-26.73,59.94-77.28,59.94C2451,324.15,2422.85,314,2404.08,298.88Z"/></g><circle class="cls-3" cx="2637.31" cy="286.76" r="37.39"/></g></g></svg>