<svg xmlns="http://www.w3.org/2000/svg" viewBox="0 0 360.46 385.17"><defs><style>.cls-1{fill:#878787;opacity:0.15;}</style></defs><title>product-icon</title><g id="Layer_2" data-name="Layer 2"><g id="Layer_1-2" data-name="Layer 1"><path class="cls-1" d="M360.12,158.56c.93-3.56-.07-4.51-3.31-5.33-19.16-4.83-38.26-9.87-57.38-14.84-5.17-1.34-5.1-1.33-3.86-6.47,2.7-11.19,6.95-22.1,7.54-33.67,1.12-21.81-4.18-41.94-17-59.9a88.86,88.86,0,0,0-43.3-32.79c-22.57-8-45.22-7.47-67.36,2.19a89.79,89.79,0,0,0-42.79,38.14c-7.15,12.31-10.56,25.88-14.09,39.45-1.62,6.23-.72,5.84-6.92,4.23q-28.5-7.36-57-14.84c-2.57-.68-4-.73-4.8,2.45-16,62.13-32.26,124.22-48.26,186.36a50.93,50.93,0,0,0,.29,26.31c6.2,22.55,21,36.51,43.44,42.38Q94,344.95,142.71,357.56t97.38,25.35a62.73,62.73,0,0,0,12.49,2.16c28,1.5,52-14.61,59.5-42.56C328.46,281.29,344.07,219.86,360.12,158.56ZM123.71,157c-9.55-2.49-14.51-10.86-12.07-20.36s11.39-15.11,20.62-12.51c10.64,3,14.59,12.21,12.36,20.88C142.11,154.81,133,159.79,123.71,157Zm123.06-32.28c-13.7-3.68-27.44-7.19-41.17-10.76-13.47-3.5-26.93-7.06-40.43-10.45-2.63-.66-3.5-1.62-2.63-4.35,3.2-10.06,4.23-20.79,9.45-30.23,8.77-15.86,26.53-24.58,44.68-22.85,27.22,2.6,46.85,30.26,39.29,57.63-1.69,6.14-3.34,12.29-4.76,18.49C250.57,125,249.39,125.46,246.77,124.76Zm9.57,67a17.13,17.13,0,1,1,9.24-33,17.13,17.13,0,0,1-9.24,33Z"/></g></g></svg>