<svg xmlns="http://www.w3.org/2000/svg" viewBox="0 0 419.04 348.74"><defs><style>.cls-1{opacity:0.15;}.cls-2{fill:#878787;}</style></defs><title>travel-icon</title><g id="Layer_2" data-name="Layer 2"><g id="Layer_1-2" data-name="Layer 1"><g class="cls-1"><path class="cls-2" d="M285.6,257.21q11.41-44,22.8-88.07c.59-2.33,1.48-3.31,4-3.72,14.94-2.45,29.84-5.16,44.75-7.78q24.71-4.35,49.41-8.68c7.77-1.35,13.8,5.08,12.23,12.95-.11.57-.28,1.13-.43,1.7q-20.25,78-40.46,156c-2,7.9-6.72,13.32-14.38,15.89-4.34,1.45-9,1.51-13.53,2.09q-42.67,5.52-85.36,10.93c-2.84.37-2.84.39-2.14-2.32Q274,301.72,285.6,257.21Z"/><path class="cls-2" d="M21,190.13Q31,151.31,41.09,112.48c2-7.87,6.62-13.37,14.33-15.93,4.26-1.43,8.83-1.5,13.28-2.07,23.66-3,47.34-6,71-9.08,2-.26,2.67.26,2.87,2.18a172.7,172.7,0,0,0,5,27.72,9.64,9.64,0,0,1,0,5.14q-18.6,71.46-37.08,143c-.54,2.1-1.44,2.84-3.61,3.2-13.13,2.17-26.22,4.56-39.33,6.87C49.1,276.7,30.67,280,12.22,283.12,4.14,284.5-1.69,277.53.45,269.23q8.07-31.34,16.24-62.65Q18.84,198.36,21,190.13Z"/><path class="cls-2" d="M282,187.64l-.8,3.08q-19.45,75-38.93,150c-.74,2.84-.74,2.85-3.12,1.3q-53.37-34.62-106.75-69.22c-1.42-.93-2.3-1.67-1.76-3.73q14.55-55.62,28.93-111.29l.31-1.18.48-.12c1.48,3.81,2.92,7.63,4.44,11.41,5.33,13.28,10.94,26.43,17.16,39.32,1.84,3.82,3.47,7.73,5.83,11.28,9.08,13.68,28.47,17.73,42.15,8.78C241.8,219.49,253,210.77,264.2,202,270,197.39,275.68,192.71,282,187.64Z"/><path class="cls-2" d="M326.35,90.46c2.09-22.29-3.91-42.34-17.85-59.63C294.34,13.27,275.74,3,253.11.53A82.48,82.48,0,0,0,170.3,45.42a67.35,67.35,0,0,0-7.52,25.65c-.77,10.84,1,21.43,3.29,31.91,4.18,19.33,10.59,38,18,56.29,6,15,12.55,29.9,19.39,44.6,3.52,7.55,10.88,9.31,17.55,4.35,11.07-8.25,22.2-16.39,33-25,20.57-16.47,40.34-33.75,56.54-54.7,6.13-7.93,11.55-16.29,13.94-26.72A59.35,59.35,0,0,0,326.35,90.46ZM237.2,109.32a27.36,27.36,0,0,1-19.65-33.88,27.52,27.52,0,1,1,53.16,14.28A27.32,27.32,0,0,1,237.2,109.32Z"/></g></g></g></svg>